<svg width="33" height="35" viewBox="0 0 33 35" fill="none" xmlns="http://www.w3.org/2000/svg">
<path d="M26.7083 11.6667V23.3333C26.7083 24.1398 26.0565 24.7917 25.25 24.7917C24.4435 24.7917 23.7917 24.1398 23.7917 23.3333V11.6667C23.7917 10.8602 24.4435 10.2083 25.25 10.2083C26.0565 10.2083 26.7083 10.8602 26.7083 11.6667ZM19.4167 0C18.6102 0 17.9583 0.651875 17.9583 1.45833V33.5417C17.9583 34.3481 18.6102 35 19.4167 35C20.2231 35 20.875 34.3481 20.875 33.5417V1.45833C20.875 0.651875 20.2231 0 19.4167 0ZM31.0833 5.83333C30.2769 5.83333 29.625 6.48521 29.625 7.29167V27.7083C29.625 28.5148 30.2769 29.1667 31.0833 29.1667C31.8898 29.1667 32.5417 28.5148 32.5417 27.7083V7.29167C32.5417 6.48521 31.8898 5.83333 31.0833 5.83333ZM13.5833 5.83333C12.7769 5.83333 12.125 6.48521 12.125 7.29167V27.7083C12.125 28.5148 12.7769 29.1667 13.5833 29.1667C14.3898 29.1667 15.0417 28.5148 15.0417 27.7083V7.29167C15.0417 6.48521 14.3898 5.83333 13.5833 5.83333ZM7.75 10.2083C6.94354 10.2083 6.29167 10.8602 6.29167 11.6667V23.3333C6.29167 24.1398 6.94354 24.7917 7.75 24.7917C8.55646 24.7917 9.20833 24.1398 9.20833 23.3333V11.6667C9.20833 10.8602 8.55646 10.2083 7.75 10.2083ZM1.91667 13.125C1.11021 13.125 0.458332 13.7769 0.458332 14.5833V20.4167C0.458332 21.2231 1.11021 21.875 1.91667 21.875C2.72312 21.875 3.375 21.2231 3.375 20.4167V14.5833C3.375 13.7769 2.72312 13.125 1.91667 13.125Z" fill="#D43F5D"/>
</svg>
