<svg width="35" height="35" viewBox="0 0 35 35" fill="none" xmlns="http://www.w3.org/2000/svg">
<path d="M27.7083 0H7.29167C5.35851 0.00231563 3.50519 0.771286 2.13824 2.13824C0.771286 3.50519 0.00231563 5.35851 0 7.29167L0 27.7083C0.00231563 29.6415 0.771286 31.4948 2.13824 32.8618C3.50519 34.2287 5.35851 34.9977 7.29167 35H27.7083C29.6415 34.9977 31.4948 34.2287 32.8618 32.8618C34.2287 31.4948 34.9977 29.6415 35 27.7083V7.29167C34.9977 5.35851 34.2287 3.50519 32.8618 2.13824C31.4948 0.771286 29.6415 0.00231563 27.7083 0ZM7.29167 2.91667H27.7083C28.8687 2.91667 29.9815 3.3776 30.8019 4.19807C31.6224 5.01855 32.0833 6.13134 32.0833 7.29167V27.7083C32.0808 28.358 31.9312 28.9987 31.6458 29.5823L18.2831 16.2196C17.606 15.5423 16.8021 15.005 15.9173 14.6385C15.0325 14.2719 14.0842 14.0832 13.1265 14.0832C12.1687 14.0832 11.2204 14.2719 10.3356 14.6385C9.45082 15.005 8.64691 15.5423 7.96979 16.2196L2.91667 21.2713V7.29167C2.91667 6.13134 3.3776 5.01855 4.19807 4.19807C5.01855 3.3776 6.13134 2.91667 7.29167 2.91667ZM7.29167 32.0833C6.13134 32.0833 5.01855 31.6224 4.19807 30.8019C3.3776 29.9815 2.91667 28.8687 2.91667 27.7083V25.3954L10.0304 18.2817C10.4367 17.8751 10.9191 17.5526 11.4501 17.3326C11.9811 17.1125 12.5502 16.9993 13.125 16.9993C13.6998 16.9993 14.2689 17.1125 14.7999 17.3326C15.3309 17.5526 15.8133 17.8751 16.2196 18.2817L29.5823 31.6458C28.9987 31.9312 28.358 32.0808 27.7083 32.0833H7.29167Z" fill="#D43F5D"/>
<path d="M23.3334 15.3126C24.3429 15.3126 25.3297 15.0132 26.1691 14.4524C27.0085 13.8915 27.6627 13.0944 28.049 12.1617C28.4353 11.229 28.5364 10.2028 28.3394 9.21264C28.1425 8.22253 27.6564 7.31306 26.9425 6.59923C26.2287 5.8854 25.3192 5.39927 24.3291 5.20233C23.339 5.00538 22.3127 5.10646 21.3801 5.49278C20.4474 5.8791 19.6502 6.53332 19.0894 7.37269C18.5285 8.21207 18.2292 9.19891 18.2292 10.2084C18.2292 11.5621 18.7669 12.8604 19.7242 13.8176C20.6814 14.7748 21.9796 15.3126 23.3334 15.3126ZM23.3334 8.02092C23.766 8.02092 24.1889 8.14921 24.5487 8.38958C24.9084 8.62994 25.1888 8.97158 25.3543 9.3713C25.5199 9.77101 25.5632 10.2108 25.4788 10.6352C25.3944 11.0595 25.1861 11.4493 24.8801 11.7552C24.5742 12.0611 24.1844 12.2695 23.7601 12.3539C23.3358 12.4383 22.8959 12.395 22.4962 12.2294C22.0965 12.0638 21.7549 11.7835 21.5145 11.4237C21.2741 11.064 21.1459 10.6411 21.1459 10.2084C21.1459 9.62826 21.3763 9.07186 21.7866 8.66162C22.1968 8.25138 22.7532 8.02092 23.3334 8.02092Z" fill="#D43F5D"/>
</svg>
