<svg width="20" height="21" viewBox="0 0 20 21" fill="none" xmlns="http://www.w3.org/2000/svg">
<path d="M9.17267 7.14814L9.16683 20.0131C9.16683 20.2342 9.25463 20.4461 9.41091 20.6024C9.56719 20.7587 9.77915 20.8465 10.0002 20.8465C10.2212 20.8465 10.4331 20.7587 10.5894 20.6024C10.7457 20.4461 10.8335 20.2342 10.8335 20.0131L10.8393 7.16231L13.266 9.58981C13.4223 9.74604 13.6342 9.8338 13.8552 9.8338C14.0761 9.8338 14.2881 9.74604 14.4443 9.58981C14.6006 9.43354 14.6883 9.22162 14.6883 9.00065C14.6883 8.77967 14.6006 8.56775 14.4443 8.41148L11.7685 5.73231C11.5363 5.5 11.2607 5.3157 10.9572 5.18997C10.6538 5.06423 10.3286 4.99951 10.0002 4.99951C9.67173 4.99951 9.34651 5.06423 9.04309 5.18997C8.73967 5.3157 8.464 5.5 8.23183 5.73231L5.556 8.40898C5.39977 8.56525 5.31201 8.77717 5.31201 8.99814C5.31201 9.21911 5.39977 9.43104 5.556 9.58731C5.71227 9.74354 5.9242 9.8313 6.14517 9.8313C6.36614 9.8313 6.57806 9.74354 6.73433 9.58731L9.17267 7.14814Z" fill="#D43F5D"/>
<path d="M1.66667 5.83317V2.49984C1.66667 2.27882 1.75446 2.06686 1.91074 1.91058C2.06702 1.7543 2.27899 1.6665 2.5 1.6665L17.5 1.6665C17.721 1.6665 17.933 1.7543 18.0893 1.91058C18.2455 2.06686 18.3333 2.27882 18.3333 2.49984V5.83317C18.3333 6.05418 18.4211 6.26615 18.5774 6.42243C18.7337 6.57871 18.9457 6.6665 19.1667 6.6665C19.3877 6.6665 19.5996 6.57871 19.7559 6.42243C19.9122 6.26615 20 6.05418 20 5.83317V2.49984C20 1.8368 19.7366 1.20091 19.2678 0.732069C18.7989 0.263229 18.163 -0.000163078 17.5 -0.000163078L2.5 -0.000163078C1.83696 -0.000163078 1.20107 0.263229 0.732233 0.732069C0.263391 1.20091 0 1.8368 0 2.49984V5.83317C0 6.05418 0.0877972 6.26615 0.244078 6.42243C0.400358 6.57871 0.61232 6.6665 0.833334 6.6665C1.05435 6.6665 1.26631 6.57871 1.42259 6.42243C1.57887 6.26615 1.66667 6.05418 1.66667 5.83317Z" fill="#D43F5D"/>
</svg>
